<?xml version="1.0" encoding="utf-8"?>
<!-- Generator: Adobe Illustrator 19.0.0, SVG Export Plug-In . SVG Version: 6.00 Build 0)  -->
<svg version="1.1" id="Layer_1" xmlns="http://www.w3.org/2000/svg" xmlns:xlink="http://www.w3.org/1999/xlink" x="0px" y="0px"
	 viewBox="-49 141 100 100" style="enable-background:new -49 141 100 100;" xml:space="preserve">
<style type="text/css">
	.st0{clip-path:url(#SVGID_2_);}
</style>
<g>
	<g>
		<defs>
			<rect id="SVGID_1_" x="-30.3" y="144.7" width="62.7" height="92.5"/>
		</defs>
		<clipPath id="SVGID_2_">
			<use xlink:href="#SVGID_1_"  style="overflow:visible;"/>
		</clipPath>
		<path class="st0" d="M1,144.7c-17.3,0-31.3,14.1-31.3,31.3c0,6.9,4.1,17.5,12.9,33.2c6,10.7,12,19.8,12.2,20.2L-1,236
			c0.4,0.7,1.2,1.1,2,1.1c0.8,0,1.5-0.4,2-1.1l4.3-6.5c0.2-0.4,6.2-9.4,12.2-20.2c8.8-15.7,12.9-26.3,12.9-33.2
			C32.3,158.8,18.3,144.7,1,144.7L1,144.7z M15.4,207c-6,10.7-11.8,19.5-12,19.9L1,230.5l-2.3-3.6c-0.2-0.4-6.1-9.3-12-19.9
			c-8.1-14.6-12.3-25-12.3-30.9c0-14.7,12-26.6,26.6-26.6c14.7,0,26.6,12,26.6,26.6C27.6,182,23.5,192.4,15.4,207L15.4,207z
			 M15.4,207"/>
	</g>
	<path d="M1,158.5c-9.6,0-17.4,7.8-17.4,17.4c0,9.6,7.8,17.4,17.4,17.4c9.6,0,17.4-7.8,17.4-17.4C18.4,166.3,10.6,158.5,1,158.5
		L1,158.5z M1,188.6c-7,0-12.7-5.7-12.7-12.7c0-7,5.7-12.7,12.7-12.7c7,0,12.7,5.7,12.7,12.7C13.7,182.9,8,188.6,1,188.6L1,188.6z
		 M1,188.6"/>
</g>
</svg>
