<?xml version="1.0" encoding="utf-8"?>
<!-- Generator: Adobe Illustrator 19.0.0, SVG Export Plug-In . SVG Version: 6.00 Build 0)  -->
<svg version="1.1" id="Capa_1" xmlns="http://www.w3.org/2000/svg" xmlns:xlink="http://www.w3.org/1999/xlink" x="0px" y="0px"
	 viewBox="0 0 127.6 127.6" style="enable-background:new 0 0 127.6 127.6;" xml:space="preserve">
<style type="text/css">
	.st0{fill:#FFFFFF;}
</style>
<g>
	<path class="st0" d="M6,23.8h6.7v8.9c0,1.2,1,2.2,2.2,2.2h26.7c1.2,0,2.2-1,2.2-2.2v-8.9h77.8c1.2,0,2.2-1,2.2-2.2
		c0-1.2-1-2.2-2.2-2.2H43.8v-8.9c0-1.2-1-2.2-2.2-2.2H14.9c-1.2,0-2.2,1-2.2,2.2v8.9H6c-1.2,0-2.2,1-2.2,2.2
		C3.8,22.8,4.8,23.8,6,23.8L6,23.8z M17.1,12.7h22.2v17.8H17.1V12.7z M17.1,12.7"/>
	<path class="st0" d="M121.6,61.6H79.3v-8.9c0-1.2-1-2.2-2.2-2.2H50.5c-1.2,0-2.2,1-2.2,2.2v8.9H6c-1.2,0-2.2,1-2.2,2.2
		C3.8,65,4.8,66,6,66h42.2v8.9c0,1.2,1,2.2,2.2,2.2h26.7c1.2,0,2.2-1,2.2-2.2V66h42.2c1.2,0,2.2-1,2.2-2.2
		C123.8,62.6,122.8,61.6,121.6,61.6L121.6,61.6z M74.9,72.7H52.7V54.9h22.2V72.7z M74.9,72.7"/>
	<path class="st0" d="M121.6,103.8h-6.7v-8.9c0-1.2-1-2.2-2.2-2.2H86c-1.2,0-2.2,1-2.2,2.2v8.9H6c-1.2,0-2.2,1-2.2,2.2
		c0,1.2,1,2.2,2.2,2.2h77.8v8.9c0,1.2,1,2.2,2.2,2.2h26.7c1.2,0,2.2-1,2.2-2.2v-8.9h6.7c1.2,0,2.2-1,2.2-2.2
		C123.8,104.8,122.8,103.8,121.6,103.8L121.6,103.8z M110.4,114.9H88.2V97.1h22.2V114.9z M110.4,114.9"/>
</g>
</svg>
