<?xml version="1.0" encoding="utf-8"?>
<!-- Generator: Adobe Illustrator 19.0.0, SVG Export Plug-In . SVG Version: 6.00 Build 0)  -->
<svg version="1.1" id="Layer_1" xmlns="http://www.w3.org/2000/svg" xmlns:xlink="http://www.w3.org/1999/xlink" x="0px" y="0px"
	 viewBox="-49 141 100 100" style="enable-background:new -49 141 100 100;" xml:space="preserve">
<g>
	<path d="M49.9,181.6L2.5,146.9c-0.9-0.7-2.2-0.7-3.1,0l-47.4,34.7c-1.2,0.8-1.4,2.5-0.6,3.6c0.8,1.2,2.5,1.4,3.6,0.6L1,152.2
		l45.9,33.6c0.5,0.3,1,0.5,1.5,0.5c0.8,0,1.6-0.4,2.1-1.1C51.3,184.1,51.1,182.5,49.9,181.6z"/>
	<path d="M37.4,186.4c-1.4,0-2.6,1.2-2.6,2.6v41.4H14v-22.6c0-7.2-5.8-13-13-13s-13,5.8-13,13v22.6h-20.8V189c0-1.4-1.2-2.6-2.6-2.6
		s-2.6,1.2-2.6,2.6v44c0,1.4,1.2,2.6,2.6,2.6h26c1.4,0,2.5-1.1,2.6-2.4c0-0.1,0-0.1,0-0.2v-25.2c0-4.3,3.5-7.8,7.8-7.8
		s7.8,3.5,7.8,7.8V233c0,0.1,0,0.1,0,0.2c0.1,1.3,1.2,2.4,2.6,2.4h26c1.4,0,2.6-1.2,2.6-2.6v-44C40,187.6,38.8,186.4,37.4,186.4z"/>
</g>
</svg>
