<?xml version="1.0" encoding="utf-8"?>
<!-- Generator: Adobe Illustrator 19.0.0, SVG Export Plug-In . SVG Version: 6.00 Build 0)  -->
<svg version="1.1" id="Layer_1" xmlns="http://www.w3.org/2000/svg" xmlns:xlink="http://www.w3.org/1999/xlink" x="0px" y="0px"
	 viewBox="-49 141 100 100" style="enable-background:new -49 141 100 100;" xml:space="preserve">
<style type="text/css">
	.st0{clip-path:url(#SVGID_1_);}
</style>
<g>
	<g>
		<defs>
			<rect id="SVGID_3_" x="-41.2" y="148.7" width="84.4" height="84.7"/>
		</defs>
		<clipPath id="SVGID_1_">
			<use xlink:href="#SVGID_3_"  style="overflow:visible;"/>
		</clipPath>
		<path class="st0" d="M42.4,228.8l-20.5-20.5c5.5-6.3,8.8-14.6,8.8-23.6c0-19.9-16.2-36-36-36c-19.9,0-36,16.2-36,36s16.2,36,36,36
			c9,0,17.3-3.3,23.6-8.8l20.5,20.5c0.5,0.5,1.1,0.7,1.8,0.7c0.6,0,1.3-0.2,1.8-0.7C43.4,231.4,43.4,229.8,42.4,228.8L42.4,228.8z
			 M-36.2,184.7c0-17.1,13.9-30.9,30.9-30.9c17.1,0,30.9,13.9,30.9,30.9c0,17-13.9,31-30.9,31C-22.3,215.6-36.2,201.8-36.2,184.7
			L-36.2,184.7z M-36.2,184.7"/>
	</g>
</g>
</svg>
