<?xml version="1.0" encoding="utf-8"?>
<!-- Generator: Adobe Illustrator 19.0.0, SVG Export Plug-In . SVG Version: 6.00 Build 0)  -->
<svg version="1.1" id="Capa_1" xmlns="http://www.w3.org/2000/svg" xmlns:xlink="http://www.w3.org/1999/xlink" x="0px" y="0px"
	 viewBox="0 0 269.3 269.3" style="enable-background:new 0 0 269.3 269.3;" xml:space="preserve">
<style type="text/css">
	.st0{fill:#FFFFFF;}
</style>
<g>
	<path class="st0" d="M140.2,72c-8.4-2.8-18.1,0-25.1,5.6c-7,5.6-11.1,13.9-11.1,23.7c0,4.2,2.8,7,7,7c4.2,0,7-2.8,7-7
		c0-4.2,1.4-9.7,5.6-12.5c4.2-2.8,8.4-4.2,13.9-2.8c7,1.4,11.1,7,12.5,12.5c1.4,7,0,12.5-5.6,16.7c-11.1,8.4-16.7,20.9-16.7,33.4
		c0,4.2,2.8,7,7,7s7-2.8,5.6-7c0-8.4,5.6-16.7,12.5-22.3c9.7-8.4,13.9-19.5,11.1-30.6C161.1,83.1,151.4,74.8,140.2,72L140.2,72z
		 M140.2,72"/>
	<path class="st0" d="M129.1,184.8c-1.4,1.4-1.4,4.2-1.4,5.6c0,1.4,0,2.8,1.4,4.2c1.4,1.4,4.2,2.8,5.6,2.8c1.4,0,4.2-1.4,4.2-2.8
		c1.4,0,2.8-2.8,2.8-4.2c0-2.8-1.4-4.2-2.8-5.6C136,182,131.9,182,129.1,184.8L129.1,184.8z M129.1,184.8"/>
	<path class="st0" d="M134.6,16.3c-65.4,0-118.3,52.9-118.3,118.3S69.2,253,134.6,253S253,200.1,253,134.6S200.1,16.3,134.6,16.3
		L134.6,16.3z M134.6,239.1c-57.1,0-104.4-47.3-104.4-104.4S77.6,30.2,134.6,30.2s104.4,47.3,104.4,104.4S191.7,239.1,134.6,239.1
		L134.6,239.1z M134.6,239.1"/>
</g>
</svg>
