<?xml version="1.0" encoding="utf-8"?>
<!-- Generator: Adobe Illustrator 19.0.0, SVG Export Plug-In . SVG Version: 6.00 Build 0)  -->
<svg version="1.1" id="Layer_1" xmlns="http://www.w3.org/2000/svg" xmlns:xlink="http://www.w3.org/1999/xlink" x="0px" y="0px"
	 viewBox="-49 141 100 100" style="enable-background:new -49 141 100 100;" xml:space="preserve">
<style type="text/css">
	.st0{clip-path:url(#SVGID_1_);}
</style>
<g>
	<g>
		<defs>
			<rect id="SVGID_3_" x="-41.5" y="150.2" width="85" height="81.5"/>
		</defs>
		<clipPath id="SVGID_1_">
			<use xlink:href="#SVGID_3_"  style="overflow:visible;"/>
		</clipPath>
		<path class="st0" d="M19.5,150.4c-7.2,0-14,3.3-18.5,8.8c-4.5-5.5-11.3-8.8-18.5-8.8c-13.2,0-24,10.8-24,24
			c0,10.4,6.2,22.3,18.4,35.6c9.4,10.2,19.6,18.1,22.5,20.3l1.7,1.3l1.7-1.3c2.9-2.2,13.1-10.1,22.5-20.3
			c12.2-13.3,18.4-25.3,18.4-35.6C43.5,161.1,32.8,150.4,19.5,150.4L19.5,150.4z M21.1,206.2c-7.7,8.4-16,15.2-20,18.3
			c-4-3.1-12.3-9.9-20-18.3c-11-12-16.9-23-16.9-31.8c0-10.1,8.2-18.4,18.4-18.4c6.7,0,12.8,3.6,16.1,9.5l2.5,4.4l2.5-4.4
			c3.2-5.9,9.4-9.5,16.1-9.5c10.1,0,18.4,8.2,18.4,18.4C37.9,183.1,32.1,194.1,21.1,206.2L21.1,206.2z M21.1,206.2"/>
	</g>
</g>
</svg>
