<?xml version="1.0" encoding="utf-8"?>
<!-- Generator: Adobe Illustrator 19.0.0, SVG Export Plug-In . SVG Version: 6.00 Build 0)  -->
<svg version="1.1" id="Layer_1" xmlns="http://www.w3.org/2000/svg" xmlns:xlink="http://www.w3.org/1999/xlink" x="0px" y="0px"
	 viewBox="-49 141 100 100" style="enable-background:new -49 141 100 100;" xml:space="preserve">
<g>
	<path d="M-41.6,168.4h85.1c1.9,0,3.5-1.6,3.5-3.5c0-1.9-1.6-3.5-3.5-3.5h-85.1c-1.9,0-3.5,1.6-3.5,3.5
		C-45,166.9-43.5,168.4-41.6,168.4L-41.6,168.4z M-41.6,168.4"/>
	<path d="M-41.6,194.5h85.1c1.9,0,3.5-1.6,3.5-3.5c0-1.9-1.6-3.5-3.5-3.5h-85.1c-1.9,0-3.5,1.6-3.5,3.5
		C-45,192.9-43.5,194.5-41.6,194.5L-41.6,194.5z M-41.6,194.5"/>
	<path d="M-41.6,220.5h85.1c1.9,0,3.5-1.6,3.5-3.5c0-1.9-1.6-3.5-3.5-3.5h-85.1c-1.9,0-3.5,1.6-3.5,3.5
		C-45,219-43.5,220.5-41.6,220.5L-41.6,220.5z M-41.6,220.5"/>
</g>
</svg>
